<svg width="18" height="18" viewBox="0 0 18 18" fill="none" xmlns="http://www.w3.org/2000/svg">
<path d="M1.74279 16.7143L5.36271 10.2883L10.1417 14.4604C10.2862 14.589 10.4578 14.6833 10.6437 14.7363C10.8297 14.7894 11.0252 14.7998 11.2158 14.7668C11.4063 14.7338 11.587 14.6583 11.7443 14.5458C11.9016 14.4333 12.0315 14.2868 12.1243 14.1171L16.605 7.4295L15.5372 6.71336L11.0372 13.4299L10.9922 13.4961L6.21257 9.324C6.06815 9.19618 5.89687 9.10244 5.71136 9.04969C5.52586 8.99694 5.33088 8.98654 5.14081 9.01924C4.95075 9.05195 4.77046 9.12693 4.61326 9.23865C4.45606 9.35037 4.32596 9.49598 4.23257 9.66471L1.28571 14.9034V0H0V16.7143C0.000340378 17.0552 0.135908 17.382 0.376953 17.623C0.617997 17.8641 0.944826 17.9997 1.28571 18H18V16.7143H1.74279Z" fill="#6D7C90"/>
</svg>
