<svg width="20" height="20" viewBox="0 0 20 20" fill="none" xmlns="http://www.w3.org/2000/svg">
<path fill-rule="evenodd" clip-rule="evenodd" d="M4.0258 8.3335C4.0258 8.3335 4.47718 8.27238 5.13213 8.09683C6.85912 7.63406 10 6.37797 10 3.3569C10 2.9161 9.91355 2.47962 9.74559 2.07238C9.57763 1.66513 9.33144 1.2951 9.02108 0.983409C8.71073 0.671718 8.34228 0.424471 7.93678 0.255785C7.53129 0.0870994 7.09667 0.000277796 6.65777 0.000277796H3.38523C2.94274 -0.00543969 2.50353 0.077151 2.09307 0.243258C1.68261 0.409365 1.30909 0.65568 0.994169 0.967913C0.679249 1.28015 0.429204 1.65208 0.258542 2.06213C0.0878804 2.47218 0 2.91219 0 3.35662C0 3.80105 0.0878804 4.24106 0.258542 4.65111C0.429204 5.06116 0.679249 5.43309 0.994169 5.74533C1.30909 6.05756 1.68261 6.30387 2.09307 6.46998C2.50353 6.63609 2.94274 6.71868 3.38523 6.71296H4.0258V8.3335ZM5.13213 5.60187H3.38523C3.08869 5.60655 2.79418 5.55194 2.51885 5.44121C2.24352 5.33047 1.99288 5.16584 1.78153 4.95688C1.57017 4.74793 1.40232 4.49883 1.28774 4.2241C1.17317 3.94936 1.11416 3.65448 1.11416 3.35662C1.11416 3.05876 1.17317 2.76388 1.28774 2.48914C1.40232 2.21441 1.57017 1.96531 1.78153 1.75636C1.99288 1.5474 2.24352 1.38276 2.51885 1.27203C2.79418 1.1613 3.08869 1.10669 3.38523 1.11137H6.65777C6.95139 1.11137 7.24214 1.16946 7.51341 1.2823C7.78468 1.39515 8.03116 1.56056 8.23879 1.76907C8.44641 1.97759 8.6111 2.22513 8.72347 2.49757C8.83583 2.77001 8.89367 3.06201 8.89367 3.3569C8.89367 4.79188 7.89354 5.74742 6.5322 6.40686C6.08036 6.62246 5.6122 6.80172 5.13213 6.94296V5.60187ZM4.74492 14.4445C5.96741 14.4445 6.95758 13.4501 6.95758 12.2223C6.95758 10.9946 5.96741 10.0001 4.74492 10.0001C3.52242 10.0001 2.53225 10.9946 2.53225 12.2223C2.53225 13.4501 3.52242 14.4445 4.74492 14.4445ZM5.85125 12.2223C5.85125 12.517 5.73469 12.7996 5.52721 13.008C5.31973 13.2164 5.03833 13.3334 4.74492 13.3334C4.4515 13.3334 4.1701 13.2164 3.96262 13.008C3.75514 12.7996 3.63858 12.517 3.63858 12.2223C3.63858 11.9276 3.75514 11.645 3.96262 11.4367C4.1701 11.2283 4.4515 11.1112 4.74492 11.1112C5.03833 11.1112 5.31973 11.2283 5.52721 11.4367C5.73469 11.645 5.85125 11.9276 5.85125 12.2223ZM0.042997 17.9261C0.042997 16.3495 3.17558 15.5556 4.74492 15.5556C6.31425 15.5556 9.44683 16.35 9.44683 17.9261V20H0.042997V17.9261ZM1.14933 18.8889V17.9261C1.14933 17.9206 1.14933 17.9095 1.16371 17.8817C1.18141 17.8473 1.2218 17.7867 1.3092 17.7056C1.49119 17.5361 1.79598 17.3511 2.21805 17.1806C3.06439 16.8389 4.09882 16.6667 4.74492 16.6667C5.39046 16.6667 6.42599 16.8389 7.27178 17.1806C7.6933 17.3511 7.99864 17.5361 8.18063 17.7056C8.26803 17.7867 8.30842 17.8473 8.32612 17.8811C8.3405 17.9089 8.3405 17.9211 8.3405 17.9256V18.8889H1.14933ZM17.4678 12.2223C17.4678 13.4501 16.4776 14.4445 15.2551 14.4445C14.0326 14.4445 13.0424 13.4501 13.0424 12.2223C13.0424 10.9946 14.0326 10.0001 15.2551 10.0001C16.4776 10.0001 17.4678 10.9946 17.4678 12.2223ZM15.2551 13.3334C15.5485 13.3334 15.8299 13.2164 16.0374 13.008C16.2449 12.7996 16.3614 12.517 16.3614 12.2223C16.3614 11.9276 16.2449 11.645 16.0374 11.4367C15.8299 11.2283 15.5485 11.1112 15.2551 11.1112C14.9617 11.1112 14.6803 11.2283 14.4728 11.4367C14.2653 11.645 14.1488 11.9276 14.1488 12.2223C14.1488 12.517 14.2653 12.7996 14.4728 13.008C14.6803 13.2164 14.9617 13.3334 15.2551 13.3334ZM10.5532 17.9261C10.5532 16.3495 13.6858 15.5556 15.2551 15.5556C16.8244 15.5556 19.957 16.35 19.957 17.9261V20H10.5532V17.9261ZM11.6595 18.8889V17.9261C11.6595 17.9206 11.6595 17.9095 11.6739 17.8817C11.6916 17.8473 11.732 17.7867 11.8188 17.7056C12.0014 17.5361 12.3067 17.3511 12.7282 17.1806C13.5746 16.8389 14.609 16.6667 15.2551 16.6667C15.9006 16.6667 16.9362 16.8389 17.782 17.1806C18.2035 17.3511 18.5088 17.5361 18.6914 17.7056C18.7782 17.7867 18.8186 17.8473 18.8363 17.8811C18.8507 17.9089 18.8507 17.9211 18.8507 17.9256V18.8889H11.6595ZM15.3104 8.6146C15.9576 8.81904 16.4167 8.88904 16.4167 8.88904V7.26851H16.6148C17.0573 7.27423 17.4965 7.19164 17.9069 7.02553C18.3174 6.85942 18.6909 6.61311 19.0058 6.30087C19.3208 5.98864 19.5708 5.61671 19.7415 5.20666C19.9121 4.79661 20 4.3566 20 3.91217C20 3.46774 19.9121 3.02773 19.7415 2.61768C19.5708 2.20763 19.3208 1.83569 19.0058 1.52346C18.6909 1.21123 18.3174 0.964913 17.9069 0.798806C17.4965 0.632699 17.0573 0.550108 16.6148 0.555826H14.4486C13.5622 0.555826 12.712 0.909469 12.0853 1.53896C11.4585 2.16845 11.1063 3.02221 11.1063 3.91245C11.1063 6.85463 13.7543 8.1235 15.3104 8.6146ZM16.6148 6.15741H15.3104V7.4424C14.9592 7.31641 14.6178 7.16413 14.2893 6.98685C13.1365 6.35852 12.2127 5.41576 12.2127 3.91189C12.2128 3.31644 12.4484 2.74542 12.8677 2.32442C13.287 1.90343 13.8557 1.66692 14.4486 1.66692H16.6148C16.9113 1.66224 17.2058 1.71685 17.4811 1.82758C17.7565 1.93831 18.0071 2.10295 18.2185 2.3119C18.4298 2.52086 18.5977 2.76996 18.7123 3.04469C18.8268 3.31943 18.8858 3.61431 18.8858 3.91217C18.8858 4.21003 18.8268 4.50491 18.7123 4.77964C18.5977 5.05438 18.4298 5.30348 18.2185 5.51243C18.0071 5.72139 17.7565 5.88602 17.4811 5.99675C17.2058 6.10749 16.9113 6.1621 16.6148 6.15741Z" fill="#6D7C90"/>
</svg>
