<svg width="26" height="26" viewBox="0 0 26 26" fill="none" xmlns="http://www.w3.org/2000/svg">
<path d="M9.75016 5.41688C9.46284 5.41688 9.1873 5.53102 8.98413 5.73418C8.78097 5.93735 8.66683 6.2129 8.66683 6.50021C8.66683 6.78753 8.78097 7.06308 8.98413 7.26625C9.1873 7.46941 9.46284 7.58355 9.75016 7.58355C10.0375 7.58355 10.313 7.46941 10.5162 7.26625C10.7194 7.06308 10.8335 6.78753 10.8335 6.50021C10.8335 6.2129 10.7194 5.93735 10.5162 5.73418C10.313 5.53102 10.0375 5.41688 9.75016 5.41688ZM6.68433 5.41688C6.90815 4.78255 7.32321 4.23327 7.87231 3.84474C8.42141 3.4562 9.07751 3.24756 9.75016 3.24756C10.4228 3.24756 11.0789 3.4562 11.628 3.84474C12.1771 4.23327 12.5922 4.78255 12.816 5.41688H20.5835C20.8708 5.41688 21.1464 5.53102 21.3495 5.73418C21.5527 5.93735 21.6668 6.2129 21.6668 6.50021C21.6668 6.78753 21.5527 7.06308 21.3495 7.26625C21.1464 7.46941 20.8708 7.58355 20.5835 7.58355H12.816C12.5922 8.21787 12.1771 8.76716 11.628 9.15569C11.0789 9.54422 10.4228 9.75287 9.75016 9.75287C9.07751 9.75287 8.42141 9.54422 7.87231 9.15569C7.32321 8.76716 6.90815 8.21787 6.68433 7.58355H5.41683C5.12951 7.58355 4.85396 7.46941 4.6508 7.26625C4.44763 7.06308 4.3335 6.78753 4.3335 6.50021C4.3335 6.2129 4.44763 5.93735 4.6508 5.73418C4.85396 5.53102 5.12951 5.41688 5.41683 5.41688H6.68433ZM16.2502 11.9169C15.9628 11.9169 15.6873 12.031 15.4841 12.2342C15.281 12.4373 15.1668 12.7129 15.1668 13.0002C15.1668 13.2875 15.281 13.5631 15.4841 13.7662C15.6873 13.9694 15.9628 14.0835 16.2502 14.0835C16.5375 14.0835 16.813 13.9694 17.0162 13.7662C17.2194 13.5631 17.3335 13.2875 17.3335 13.0002C17.3335 12.7129 17.2194 12.4373 17.0162 12.2342C16.813 12.031 16.5375 11.9169 16.2502 11.9169ZM13.1843 11.9169C13.4081 11.2826 13.8232 10.7333 14.3723 10.3447C14.9214 9.9562 15.5775 9.74756 16.2502 9.74756C16.9228 9.74756 17.5789 9.9562 18.128 10.3447C18.6771 10.7333 19.0922 11.2826 19.316 11.9169H20.5835C20.8708 11.9169 21.1464 12.031 21.3495 12.2342C21.5527 12.4373 21.6668 12.7129 21.6668 13.0002C21.6668 13.2875 21.5527 13.5631 21.3495 13.7662C21.1464 13.9694 20.8708 14.0835 20.5835 14.0835H19.316C19.0922 14.7179 18.6771 15.2672 18.128 15.6557C17.5789 16.0442 16.9228 16.2529 16.2502 16.2529C15.5775 16.2529 14.9214 16.0442 14.3723 15.6557C13.8232 15.2672 13.4081 14.7179 13.1843 14.0835H5.41683C5.12951 14.0835 4.85396 13.9694 4.6508 13.7662C4.44763 13.5631 4.3335 13.2875 4.3335 13.0002C4.3335 12.7129 4.44763 12.4373 4.6508 12.2342C4.85396 12.031 5.12951 11.9169 5.41683 11.9169H13.1843ZM9.75016 18.4169C9.46284 18.4169 9.1873 18.531 8.98413 18.7342C8.78097 18.9373 8.66683 19.2129 8.66683 19.5002C8.66683 19.7875 8.78097 20.0631 8.98413 20.2662C9.1873 20.4694 9.46284 20.5835 9.75016 20.5835C10.0375 20.5835 10.313 20.4694 10.5162 20.2662C10.7194 20.0631 10.8335 19.7875 10.8335 19.5002C10.8335 19.2129 10.7194 18.9373 10.5162 18.7342C10.313 18.531 10.0375 18.4169 9.75016 18.4169ZM6.68433 18.4169C6.90815 17.7826 7.32321 17.2333 7.87231 16.8447C8.42141 16.4562 9.07751 16.2476 9.75016 16.2476C10.4228 16.2476 11.0789 16.4562 11.628 16.8447C12.1771 17.2333 12.5922 17.7826 12.816 18.4169H20.5835C20.8708 18.4169 21.1464 18.531 21.3495 18.7342C21.5527 18.9373 21.6668 19.2129 21.6668 19.5002C21.6668 19.7875 21.5527 20.0631 21.3495 20.2662C21.1464 20.4694 20.8708 20.5835 20.5835 20.5835H12.816C12.5922 21.2179 12.1771 21.7672 11.628 22.1557C11.0789 22.5442 10.4228 22.7529 9.75016 22.7529C9.07751 22.7529 8.42141 22.5442 7.87231 22.1557C7.32321 21.7672 6.90815 21.2179 6.68433 20.5835H5.41683C5.12951 20.5835 4.85396 20.4694 4.6508 20.2662C4.44763 20.0631 4.3335 19.7875 4.3335 19.5002C4.3335 19.2129 4.44763 18.9373 4.6508 18.7342C4.85396 18.531 5.12951 18.4169 5.41683 18.4169H6.68433Z" fill="#E3E3E3"/>
</svg>
