<svg width="17" height="17" viewBox="0 0 17 17" fill="none" xmlns="http://www.w3.org/2000/svg">
<path d="M8.42326 7.0739L12.0904 8.05635M7.83333 9.27417L10.0336 9.86333M14.9034 9.0836C14.444 10.7957 14.2147 11.6521 13.6946 12.2071C13.2843 12.6453 12.7532 12.9521 12.1686 13.0886C12.0949 13.106 12.0205 13.1189 11.9446 13.1281C11.2499 13.2138 10.4018 12.9868 8.85906 12.5738C7.14698 12.1145 6.29056 11.8852 5.73556 11.3651C5.29722 10.9545 4.99047 10.4232 4.85408 9.83828C4.68098 9.09726 4.91027 8.2416 5.36961 6.52952L5.76213 5.06267L5.94739 4.37557C6.29284 3.11068 6.52517 2.41445 6.97084 1.93841C7.38132 1.50048 7.91236 1.19401 8.4969 1.0577C9.23792 0.884591 10.0943 1.11388 11.8072 1.57322C13.5185 2.0318 14.3749 2.26109 14.9299 2.78041C15.3684 3.1912 15.6752 3.72281 15.8114 4.30799C15.9336 4.83187 15.8547 5.41344 15.636 6.31466" stroke="#3E4954" stroke-width="1.5" stroke-linecap="round"/>
<path d="M1.9656 12.1207C2.42418 13.8328 2.65423 14.6892 3.17431 15.2442C3.58469 15.6825 4.11574 15.9892 4.70038 16.1257C5.44139 16.2981 6.29781 16.0688 8.01065 15.6102C9.72197 15.1516 10.5784 14.9223 11.1334 14.4022C11.5066 14.0526 11.7856 13.6144 11.9443 13.1282M5.94704 4.375C5.67979 4.44409 5.38597 4.52305 5.06253 4.61036C3.35045 5.06894 2.49403 5.29823 1.93903 5.81755C1.50056 6.22834 1.1938 6.75996 1.05756 7.34514C0.935318 7.86901 1.01428 8.45059 1.23294 9.3518" stroke="#3E4954" stroke-width="1.5" stroke-linecap="round" stroke-linejoin="round"/>
</svg>
