<svg width="18" height="20" viewBox="0 0 18 20" fill="none" xmlns="http://www.w3.org/2000/svg">
<path d="M0 16V13.2C0 12.6333 0.146 12.1123 0.438 11.637C0.73 11.1617 1.11733 10.7993 1.6 10.55C2.63333 10.0333 3.68333 9.64567 4.75 9.387C5.81667 9.12833 6.9 8.99933 8 9C8.33333 9 8.66667 9.01267 9 9.038C9.33333 9.06333 9.66667 9.10067 10 9.15V11.175C9.66667 11.1083 9.33333 11.0623 9 11.037C8.66667 11.0117 8.33333 10.9993 8 11C7.06667 11 6.14167 11.1127 5.225 11.338C4.30833 11.5633 3.4 11.9007 2.5 12.35C2.35 12.4333 2.229 12.55 2.137 12.7C2.045 12.85 1.99933 13.0167 2 13.2V14H10V16H0ZM8 8C6.9 8 5.95833 7.60833 5.175 6.825C4.39167 6.04167 4 5.1 4 4C4 2.9 4.39167 1.95833 5.175 1.175C5.95833 0.391667 6.9 0 8 0C9.1 0 10.0417 0.391667 10.825 1.175C11.6083 1.95833 12 2.9 12 4C12 5.1 11.6083 6.04167 10.825 6.825C10.0417 7.60833 9.1 8 8 8ZM8 6C8.55 6 9.021 5.804 9.413 5.412C9.805 5.02 10.0007 4.54933 10 4C10 3.45 9.804 2.979 9.412 2.587C9.02 2.195 8.54933 1.99933 8 2C7.45 2 6.979 2.196 6.587 2.588C6.195 2.98 5.99933 3.45067 6 4C6 4.55 6.196 5.021 6.588 5.413C6.98 5.805 7.45067 6.00067 8 6ZM14 20V15H12V9H18L16 13H18L14 20Z" fill="#6D7C90"/>
</svg>
