<svg width="22" height="22" viewBox="0 0 22 22" fill="none" xmlns="http://www.w3.org/2000/svg">
<path d="M17.9231 14.846H19.4615C19.8696 14.846 20.2609 14.684 20.5494 14.3954C20.8379 14.1069 21 13.7156 21 13.3076V10.9999C21 10.5919 20.8379 10.2005 20.5494 9.91203C20.2609 9.62351 19.8696 9.46143 19.4615 9.46143H17.9231C17.7191 9.46143 17.5234 9.54247 17.3791 9.68673C17.2349 9.83099 17.1538 10.0266 17.1538 10.2307V14.0768C17.1538 14.2808 17.2349 14.4765 17.3791 14.6207C17.5234 14.765 17.7191 14.846 17.9231 14.846ZM17.9231 14.846V15.9999C17.9231 16.8159 17.5989 17.5986 17.0219 18.1756C16.4448 18.7526 15.6622 19.0768 14.8462 19.0768M2.53846 9.46143H4.07692C4.28094 9.46143 4.47659 9.54247 4.62085 9.68673C4.76511 9.83099 4.84615 10.0266 4.84615 10.2307V14.0768C4.84615 14.2808 4.76511 14.4765 4.62085 14.6207C4.47659 14.765 4.28094 14.846 4.07692 14.846H2.53846C2.13044 14.846 1.73912 14.684 1.4506 14.3954C1.16209 14.1069 1 13.7156 1 13.3076V10.9999C1 10.5919 1.16209 10.2005 1.4506 9.91203C1.73912 9.62351 2.13044 9.46143 2.53846 9.46143Z" stroke="#6D7C90" stroke-width="2" stroke-linecap="round" stroke-linejoin="round"/>
<path d="M4.0769 9.46154V7.92308C4.0769 6.08696 4.8063 4.32605 6.10463 3.02772C7.40296 1.72939 9.16387 1 11 1C12.8361 1 14.597 1.72939 15.8953 3.02772C17.1937 4.32605 17.9231 6.08696 17.9231 7.92308V9.46154M8.69229 6.38462V8.69231M13.3077 6.38462V8.69231M8.69229 11.7692C8.69229 13.8154 13.3077 13.8154 13.3077 11.7692M12.9231 17.1538C13.4331 17.1538 13.9222 17.3565 14.2829 17.7171C14.6435 18.0777 14.8461 18.5669 14.8461 19.0769C14.8461 19.587 14.6435 20.0761 14.2829 20.4367C13.9222 20.7974 13.4331 21 12.9231 21H10.6154C10.1053 21 9.61619 20.7974 9.25555 20.4367C8.8949 20.0761 8.69229 19.587 8.69229 19.0769C8.69229 18.5669 8.8949 18.0777 9.25555 17.7171C9.61619 17.3565 10.1053 17.1538 10.6154 17.1538H12.9231Z" stroke="#6D7C90" stroke-width="2" stroke-linecap="round" stroke-linejoin="round"/>
</svg>
