<svg width="48" height="48" viewBox="0 0 48 48" fill="none" xmlns="http://www.w3.org/2000/svg">
<path d="M17.1299 12.4351C16.9878 12.1016 16.7521 11.8164 16.4513 11.614C16.1505 11.4117 15.7974 11.3009 15.4349 11.2951H9.43492C9.27732 11.2862 9.11991 11.3156 8.9762 11.3809C8.8325 11.4463 8.70681 11.5455 8.60992 11.6701C8.52974 11.812 8.4876 11.9722 8.4876 12.1351C8.4876 12.2981 8.52974 12.4583 8.60992 12.6001L12.7049 19.6951L6.25492 31.0801C6.17024 31.2204 6.12549 31.3812 6.12549 31.5451C6.12549 31.709 6.17024 31.8698 6.25492 32.0101C6.3354 32.1436 6.45025 32.253 6.58746 32.3268C6.72467 32.4007 6.87921 32.4364 7.03492 32.4301H13.0349C13.3945 32.4189 13.7428 32.3019 14.0363 32.0938C14.3297 31.8857 14.5553 31.5957 14.6849 31.2601L21.2249 19.6951L17.1299 12.4351ZM41.7449 4.32012C41.8224 4.17737 41.8629 4.01753 41.8629 3.85512C41.8629 3.69271 41.8224 3.53287 41.7449 3.39012C41.6562 3.26315 41.5368 3.16076 41.3977 3.09255C41.2587 3.02434 41.1046 2.99253 40.9499 3.00012H34.8299C34.4758 3.01013 34.1326 3.1253 33.8441 3.33099C33.5556 3.53667 33.3348 3.82356 33.2099 4.15512C33.2099 4.15512 20.1599 27.3001 19.7099 28.0501L28.3199 43.8451C28.4602 44.1781 28.6931 44.4639 28.9908 44.6686C29.2886 44.8733 29.6388 44.9883 29.9999 45.0001H35.9999C36.1575 45.0134 36.3157 44.9842 36.4581 44.9156C36.6006 44.847 36.7221 44.7416 36.8099 44.6101C36.8915 44.4687 36.9345 44.3084 36.9345 44.1451C36.9345 43.9819 36.8915 43.8215 36.8099 43.6801L28.2749 28.0801L41.7449 4.32012Z" fill="#25CAAC"/>
</svg>
