<svg width="124" height="21" viewBox="0 0 124 21" fill="none" xmlns="http://www.w3.org/2000/svg">
<path d="M13.28 2.072V3.488L4.52 15.584H13.04V17H0.128V15.584L8.864 3.488H0.464V2.072H13.28ZM19.679 10.328H24.863V7.52C24.863 7.216 24.815 7.016 24.719 6.92C24.639 6.824 24.439 6.776 24.119 6.776H20.423C20.103 6.776 19.895 6.824 19.799 6.92C19.719 7.016 19.679 7.216 19.679 7.52V10.328ZM17.879 5.36H26.567C27.831 5.36 28.463 5.992 28.463 7.256V11.744H19.679V14.84C19.679 15.16 19.719 15.368 19.799 15.464C19.895 15.544 20.103 15.584 20.423 15.584H24.071C24.391 15.584 24.591 15.544 24.671 15.464C24.767 15.368 24.815 15.16 24.815 14.84V13.424H28.415V15.104C28.415 16.368 27.783 17 26.519 17H17.879C16.615 17 15.983 16.368 15.983 15.104V7.256C15.983 5.992 16.615 5.36 17.879 5.36ZM36.7546 5.36H42.0346C43.2986 5.36 43.9306 5.992 43.9306 7.256V17H40.2106V7.52C40.2106 7.216 40.1626 7.016 40.0666 6.92C39.9706 6.824 39.7706 6.776 39.4666 6.776H36.2506C35.6906 6.776 35.4106 7.032 35.4106 7.544V8.264H35.3866V17H31.6666V5.36H35.3866V6.152C35.5786 5.624 36.0346 5.36 36.7546 5.36ZM67.5554 2.072H71.3234L66.4274 17H61.7714L58.6754 6.104L55.6034 17H50.9474L46.0754 2.072H50.0114L53.2754 14.288L56.7314 2.072H60.6194L64.0754 14.288L67.5554 2.072ZM77.5072 17H73.7872V5.36H77.5072V17ZM73.7152 3.416V0.92H77.5792V3.416H73.7152ZM86.2781 5.36H91.5581C92.8221 5.36 93.4541 5.992 93.4541 7.256V17H89.7341V7.52C89.7341 7.216 89.6861 7.016 89.5901 6.92C89.4941 6.824 89.2941 6.776 88.9901 6.776H85.7741C85.2141 6.776 84.9341 7.032 84.9341 7.544V8.264H84.9101V17H81.1901V5.36H84.9101V6.152C85.1021 5.624 85.5581 5.36 86.2781 5.36ZM101.095 15.584H104.335C104.911 15.584 105.199 15.328 105.199 14.816V7.544C105.199 7.032 104.911 6.776 104.335 6.776H101.095C100.775 6.776 100.567 6.824 100.471 6.92C100.391 7.016 100.351 7.216 100.351 7.52V14.84C100.351 15.16 100.391 15.368 100.471 15.464C100.567 15.544 100.775 15.584 101.095 15.584ZM108.895 16.4H108.919V18.488C108.919 19.752 108.287 20.384 107.023 20.384H97.2309V18.968H104.455C104.775 18.968 104.975 18.92 105.055 18.824C105.151 18.728 105.199 18.528 105.199 18.224V16.208C105.007 16.736 104.551 17 103.831 17H98.5509C97.2869 17 96.6549 16.368 96.6549 15.104V7.256C96.6549 5.992 97.2869 5.36 98.5509 5.36H103.831C104.551 5.36 105.007 5.624 105.199 6.152V5.36H108.895V16.4ZM119.947 14.864V12.656C119.947 12.352 119.899 12.152 119.803 12.056C119.723 11.96 119.523 11.912 119.203 11.912H113.899C112.635 11.912 112.003 11.28 112.003 10.016V7.256C112.003 5.992 112.635 5.36 113.899 5.36H121.603C122.867 5.36 123.499 5.992 123.499 7.256V8.84H119.899V7.496C119.899 7.176 119.851 6.976 119.755 6.896C119.675 6.8 119.475 6.752 119.155 6.752H116.443C116.139 6.752 115.939 6.8 115.843 6.896C115.747 6.976 115.699 7.176 115.699 7.496V9.752C115.699 10.072 115.747 10.28 115.843 10.376C115.939 10.456 116.139 10.496 116.443 10.496H121.747C123.011 10.496 123.643 11.128 123.643 12.392V15.104C123.643 16.368 123.011 17 121.747 17H113.971C112.707 17 112.075 16.368 112.075 15.104V13.52H115.699V14.864C115.699 15.168 115.747 15.368 115.843 15.464C115.939 15.56 116.139 15.608 116.443 15.608H119.203C119.523 15.608 119.723 15.56 119.803 15.464C119.899 15.368 119.947 15.168 119.947 14.864Z" fill="#25CAAC"/>
</svg>
