<svg width="174" height="48" viewBox="0 0 174 48" fill="none" xmlns="http://www.w3.org/2000/svg">
<path d="M17.1299 12.4351C16.9878 12.1016 16.7521 11.8164 16.4513 11.614C16.1505 11.4117 15.7974 11.3009 15.4349 11.2951H9.43492C9.27732 11.2862 9.11991 11.3156 8.9762 11.3809C8.8325 11.4463 8.70681 11.5455 8.60992 11.6701C8.52974 11.812 8.4876 11.9722 8.4876 12.1351C8.4876 12.2981 8.52974 12.4583 8.60992 12.6001L12.7049 19.6951L6.25492 31.0801C6.17024 31.2204 6.12549 31.3812 6.12549 31.5451C6.12549 31.709 6.17024 31.8698 6.25492 32.0101C6.3354 32.1436 6.45025 32.253 6.58746 32.3268C6.72467 32.4007 6.87921 32.4364 7.03492 32.4301H13.0349C13.3945 32.4189 13.7428 32.3019 14.0363 32.0938C14.3297 31.8857 14.5553 31.5957 14.6849 31.2601L21.2249 19.6951L17.1299 12.4351ZM41.7449 4.32012C41.8224 4.17737 41.8629 4.01753 41.8629 3.85512C41.8629 3.69271 41.8224 3.53287 41.7449 3.39012C41.6562 3.26315 41.5368 3.16076 41.3977 3.09255C41.2587 3.02434 41.1046 2.99253 40.9499 3.00012H34.8299C34.4758 3.01013 34.1326 3.1253 33.8441 3.33099C33.5556 3.53667 33.3348 3.82356 33.2099 4.15512C33.2099 4.15512 20.1599 27.3001 19.7099 28.0501L28.3199 43.8451C28.4602 44.1781 28.6931 44.4639 28.9908 44.6686C29.2886 44.8733 29.6388 44.9883 29.9999 45.0001H35.9999C36.1575 45.0134 36.3157 44.9842 36.4581 44.9156C36.6006 44.847 36.7221 44.7416 36.8099 44.6101C36.8915 44.4687 36.9345 44.3084 36.9345 44.1451C36.9345 43.9819 36.8915 43.8215 36.8099 43.6801L28.2749 28.0801L41.7449 4.32012Z" fill="#25CAAC"/>
<path d="M62.28 17.072V18.488L53.52 30.584H62.04V32H49.128V30.584L57.864 18.488H49.464V17.072H62.28ZM68.679 25.328H73.863V22.52C73.863 22.216 73.815 22.016 73.719 21.92C73.639 21.824 73.439 21.776 73.119 21.776H69.423C69.103 21.776 68.895 21.824 68.799 21.92C68.719 22.016 68.679 22.216 68.679 22.52V25.328ZM66.879 20.36H75.567C76.831 20.36 77.463 20.992 77.463 22.256V26.744H68.679V29.84C68.679 30.16 68.719 30.368 68.799 30.464C68.895 30.544 69.103 30.584 69.423 30.584H73.071C73.391 30.584 73.591 30.544 73.671 30.464C73.767 30.368 73.815 30.16 73.815 29.84V28.424H77.415V30.104C77.415 31.368 76.783 32 75.519 32H66.879C65.615 32 64.983 31.368 64.983 30.104V22.256C64.983 20.992 65.615 20.36 66.879 20.36ZM85.7546 20.36H91.0346C92.2986 20.36 92.9306 20.992 92.9306 22.256V32H89.2106V22.52C89.2106 22.216 89.1626 22.016 89.0666 21.92C88.9706 21.824 88.7706 21.776 88.4666 21.776H85.2506C84.6906 21.776 84.4106 22.032 84.4106 22.544V23.264H84.3866V32H80.6666V20.36H84.3866V21.152C84.5786 20.624 85.0346 20.36 85.7546 20.36ZM116.555 17.072H120.323L115.427 32H110.771L107.675 21.104L104.603 32H99.9474L95.0754 17.072H99.0114L102.275 29.288L105.731 17.072H109.619L113.075 29.288L116.555 17.072ZM126.507 32H122.787V20.36H126.507V32ZM122.715 18.416V15.92H126.579V18.416H122.715ZM135.278 20.36H140.558C141.822 20.36 142.454 20.992 142.454 22.256V32H138.734V22.52C138.734 22.216 138.686 22.016 138.59 21.92C138.494 21.824 138.294 21.776 137.99 21.776H134.774C134.214 21.776 133.934 22.032 133.934 22.544V23.264H133.91V32H130.19V20.36H133.91V21.152C134.102 20.624 134.558 20.36 135.278 20.36ZM150.095 30.584H153.335C153.911 30.584 154.199 30.328 154.199 29.816V22.544C154.199 22.032 153.911 21.776 153.335 21.776H150.095C149.775 21.776 149.567 21.824 149.471 21.92C149.391 22.016 149.351 22.216 149.351 22.52V29.84C149.351 30.16 149.391 30.368 149.471 30.464C149.567 30.544 149.775 30.584 150.095 30.584ZM157.895 31.4H157.919V33.488C157.919 34.752 157.287 35.384 156.023 35.384H146.231V33.968H153.455C153.775 33.968 153.975 33.92 154.055 33.824C154.151 33.728 154.199 33.528 154.199 33.224V31.208C154.007 31.736 153.551 32 152.831 32H147.551C146.287 32 145.655 31.368 145.655 30.104V22.256C145.655 20.992 146.287 20.36 147.551 20.36H152.831C153.551 20.36 154.007 20.624 154.199 21.152V20.36H157.895V31.4ZM168.947 29.864V27.656C168.947 27.352 168.899 27.152 168.803 27.056C168.723 26.96 168.523 26.912 168.203 26.912H162.899C161.635 26.912 161.003 26.28 161.003 25.016V22.256C161.003 20.992 161.635 20.36 162.899 20.36H170.603C171.867 20.36 172.499 20.992 172.499 22.256V23.84H168.899V22.496C168.899 22.176 168.851 21.976 168.755 21.896C168.675 21.8 168.475 21.752 168.155 21.752H165.443C165.139 21.752 164.939 21.8 164.843 21.896C164.747 21.976 164.699 22.176 164.699 22.496V24.752C164.699 25.072 164.747 25.28 164.843 25.376C164.939 25.456 165.139 25.496 165.443 25.496H170.747C172.011 25.496 172.643 26.128 172.643 27.392V30.104C172.643 31.368 172.011 32 170.747 32H162.971C161.707 32 161.075 31.368 161.075 30.104V28.52H164.699V29.864C164.699 30.168 164.747 30.368 164.843 30.464C164.939 30.56 165.139 30.608 165.443 30.608H168.203C168.523 30.608 168.723 30.56 168.803 30.464C168.899 30.368 168.947 30.168 168.947 29.864Z" fill="#25CAAC"/>
</svg>
